<svg id="Capa_1" enable-background="new 0 0 512 512" height="512" viewBox="0 0 512 512" width="512" xmlns="http://www.w3.org/2000/svg"><g><g><path d="m497 141c-19.299 0-35-15.701-35-35 0-8.284-6.716-15-15-15h-137v45c0 8.284-6.716 15-15 15s-15-6.716-15-15v-45h-215c-8.284 0-15 6.716-15 15 0 19.299-15.701 35-35 35-8.284 0-15 6.716-15 15v200c0 8.284 6.716 15 15 15 19.299 0 35 15.701 35 35 0 8.284 6.716 15 15 15h215v-45c0-8.284 6.716-15 15-15s15 6.716 15 15v45h137c8.284 0 15-6.716 15-15 0-19.299 15.701-35 35-35 8.284 0 15-6.716 15-15v-200c0-8.284-6.716-15-15-15zm-187 175c0 8.284-6.716 15-15 15s-15-6.716-15-15v-30c0-8.284 6.716-15 15-15s15 6.716 15 15zm0-90c0 8.284-6.716 15-15 15s-15-6.716-15-15v-30c0-8.284 6.716-15 15-15s15 6.716 15 15z" fill="#aed0ff"/></g><path d="m497 141c-19.299 0-35-15.701-35-35 0-8.284-6.716-15-15-15h-137v45c0 8.284-6.716 15-15 15s-15-6.716-15-15v-45h-24v330h24v-45c0-8.284 6.716-15 15-15s15 6.716 15 15v45h137c8.284 0 15-6.716 15-15 0-19.299 15.701-35 35-35 8.284 0 15-6.716 15-15v-200c0-8.284-6.716-15-15-15zm-187 175c0 8.284-6.716 15-15 15s-15-6.716-15-15v-30c0-8.284 6.716-15 15-15s15 6.716 15 15zm0-90c0 8.284-6.716 15-15 15s-15-6.716-15-15v-30c0-8.284 6.716-15 15-15s15 6.716 15 15z" fill="#6aa9ff"/><g><path d="m204.441 339.324c-2.388 0-4.784-.569-6.979-1.723l-42.462-22.324-42.463 22.324c-5.053 2.657-11.177 2.214-15.797-1.142-4.619-3.356-6.933-9.043-5.967-14.671l8.11-47.283-34.353-33.485c-4.088-3.985-5.56-9.946-3.795-15.376 1.764-5.43 6.458-9.388 12.109-10.209l47.475-6.898 21.231-43.02c2.527-5.12 7.742-8.361 13.451-8.361s10.924 3.242 13.451 8.361l21.231 43.02 47.475 6.898c5.65.821 10.345 4.779 12.109 10.209 1.765 5.43.293 11.391-3.795 15.376l-34.353 33.486 8.11 47.283c.965 5.627-1.348 11.315-5.967 14.671-2.616 1.898-5.71 2.864-8.821 2.864z" fill="#ffea98"/></g><g><path d="m249.266 225.643c-1.764-5.43-6.458-9.388-12.109-10.209l-47.475-6.898-21.231-43.02c-2.527-5.12-7.742-8.361-13.451-8.361v158.122l42.463 22.324c2.194 1.154 4.591 1.723 6.979 1.723 3.11 0 6.205-.966 8.818-2.865 4.619-3.356 6.933-9.043 5.967-14.671l-8.11-47.283 34.353-33.486c4.089-3.985 5.56-9.946 3.796-15.376z" fill="#ffb454"/></g><g><path d="m437 201h-82c-8.284 0-15-6.716-15-15s6.716-15 15-15h82c8.284 0 15 6.716 15 15s-6.716 15-15 15z" fill="#08475e"/></g><g><path d="m437 271h-82c-8.284 0-15-6.716-15-15s6.716-15 15-15h82c8.284 0 15 6.716 15 15s-6.716 15-15 15z" fill="#08475e"/></g><g><path d="m437 341h-82c-8.284 0-15-6.716-15-15s6.716-15 15-15h82c8.284 0 15 6.716 15 15s-6.716 15-15 15z" fill="#08475e"/></g></g></svg>