<svg id="Capa_1" enable-background="new 0 0 512 512" height="512" viewBox="0 0 512 512" width="512" xmlns="http://www.w3.org/2000/svg"><g><path d="m11 21h490v349.61h-490z" fill="#fff5f5"/><g><path d="m256 21h245v349.61h-245z" fill="#e2dff4"/></g><g><g><g><path d="m420.779 213.871 74.383-13.085c8.264-1.454 15.839 4.905 15.839 13.296v142.918c0 8.284-6.716 15-15 15h-120.001c-8.284 0-15-6.716-15-15v-21.377c0-47.905 22.473-92.861 59.779-121.752z" fill="#ff1f3e"/></g><g><path d="m495.51 202.632c7.697-2.31 15.445 3.447 15.449 11.483.022 40.418.041 142.885.041 142.885 0 8.284-6.716 15-15 15h-60c-8.284 0-15-6.716-15-15v-27.969c0-41.236 13.101-81.733 37.058-115.16z" fill="#af3345"/></g><g><path d="m382.754 165.229c-13.078-24.363-20.533-51.856-21.557-79.507-.263-7.076 4.46-13.372 11.327-15.101l119.813-30.167c5.614-1.414 11.647.514 15.408 5.207 2.183 2.724 3.255 16.483 3.255 19.973v148.237h-90.222c-15.296-13.911-28.254-30.441-38.024-48.642z" fill="#af3345"/></g><g><path d="m421.275 73.063c-.186-6.796 4.223-12.868 10.742-14.794l59.73-17.654c4.539-1.342 9.44-.463 13.23 2.369s6.023 17.919 6.023 22.65v148.237h-52.744c-22.881-43.133-35.636-91.602-36.981-140.808z" fill="#ff1f3e"/></g></g><g><path d="m91.221 213.871-74.383-13.085c-8.264-1.454-15.838 4.905-15.838 13.296v142.918c0 8.284 6.716 15 15 15h120c8.284 0 15-6.716 15-15v-21.377c0-47.905-22.473-92.861-59.779-121.752z" fill="#af3345"/></g><g><path d="m16.49 202.632c-7.697-2.31-15.445 3.447-15.449 11.483-.022 40.418-.041 142.885-.041 142.885 0 8.284 6.716 15 15 15h60c8.284 0 15-6.716 15-15v-27.969c0-41.236-13.101-81.733-37.058-115.16z" fill="#ff1f3e"/></g><g><path d="m129.246 165.229c13.078-24.363 20.533-51.856 21.557-79.507.263-7.076-4.46-13.372-11.327-15.101l-119.814-30.167c-5.614-1.414-11.647.514-15.408 5.207-2.182 2.724-3.254 16.483-3.254 19.973v148.237h90.222c15.296-13.911 28.254-30.441 38.024-48.642z" fill="#ff1f3e"/></g><g><path d="m90.725 73.063c.186-6.796-4.223-12.868-10.742-14.794l-59.73-17.654c-4.539-1.342-9.44-.463-13.23 2.369s-6.023 17.919-6.023 22.65v148.237h52.744c22.881-43.133 35.636-91.602 36.981-140.808z" fill="#ff6326"/></g><path d="m1 357v74.5c0 9.113 7.387 16.5 16.5 16.5h477c9.113 0 16.5-7.387 16.5-16.5v-74.5z" fill="#ff8659"/><path d="m256 357v91h238.5c9.113 0 16.5-7.387 16.5-16.5v-74.5z" fill="#ff6326"/><g><path d="m256 110c-87.075 0-172.94-14.932-255-44.366v-50.634c0-8.284 6.716-15 15-15h480c8.284 0 15 6.716 15 15v50.634c-82.06 29.434-167.925 44.366-255 44.366z" fill="#ff8659"/></g><g><path d="m496 0h-240v110c87.075 0 172.94-14.932 255-44.366v-50.634c0-8.284-6.716-15-15-15z" fill="#ff6326"/></g><g><g><g><g><path d="m1 432v65c0 8.284 6.716 15 15 15h112.5v-80c0-16.569-13.431-30-30-30h-67.5c-16.569 0-30 13.431-30 30z" fill="#1766a0"/><path d="m128.5 432c0-16.569-13.431-30-30-30h-33.75v110h63.75z" fill="#08475e"/></g><g><path d="m128.5 432v80h127.5v-80c0-16.569-13.431-30-30-30h-67.5c-16.569 0-30 13.431-30 30z" fill="#1766a0"/><path d="m256 432c0-16.569-13.431-30-30-30h-33.75v110h63.75z" fill="#08475e"/></g><g><path d="m256 432v80h127.5v-80c0-16.569-13.431-30-30-30h-67.5c-16.569 0-30 13.431-30 30z" fill="#1766a0"/><path d="m383.5 432c0-16.569-13.431-30-30-30h-33.75v110h63.75z" fill="#08475e"/></g><g><path d="m383.5 432v80h112.5c8.284 0 15-6.716 15-15v-65c0-16.569-13.431-30-30-30h-67.5c-16.569 0-30 13.431-30 30z" fill="#1766a0"/><path d="m511 432c0-16.569-13.431-30-30-30h-33.75v110h48.75c8.284 0 15-6.716 15-15z" fill="#08475e"/></g></g></g></g></g></g></svg>